<svg width="597" height="277" viewBox="0 0 597 277" fill="none" xmlns="http://www.w3.org/2000/svg">
<rect x="1.5" y="1.5" width="594" height="232" stroke="#CD0000" stroke-width="3"/>
<path d="M14.6973 56.1621H28.7168L43.5312 92.3311H44.1455L58.9961 56.1621H73.124V110H61.959V74.9512H61.5615L47.5781 109.747H40.0264L26.1875 74.8789H25.7178V110H14.6973V56.1621ZM88.0324 110H75.8195L94.4279 56.1621H109.062L127.634 110H115.457L111.446 97.7148H92.007L88.0324 110ZM94.8977 88.8262H108.556L101.944 68.4473H101.51L94.8977 88.8262ZM130.366 110V56.1621H151.539C157.658 56.1621 162.403 57.764 165.776 60.9678C169.172 64.1715 170.871 68.4352 170.871 73.7588C170.871 77.4443 170.051 80.5999 168.413 83.2256C166.775 85.8271 164.427 87.7783 161.368 89.0791L172.786 110H160.211L150.022 90.9219H141.711V110H130.366ZM141.711 81.7803H149.408C155.912 81.7803 159.163 79.1064 159.163 73.7588C159.163 71.085 158.357 69.0374 156.743 67.6162C155.129 66.195 152.672 65.4844 149.371 65.4844H141.711V81.7803ZM199.401 110.723C194.607 110.723 190.32 109.639 186.538 107.471C182.756 105.303 179.769 102.159 177.577 98.04C175.409 93.9209 174.325 88.9466 174.325 83.1172C174.325 77.2396 175.421 72.2412 177.613 68.1221C179.829 64.0029 182.828 60.8594 186.61 58.6914C190.416 56.5234 194.68 55.4395 199.401 55.4395C203.568 55.4395 207.314 56.2103 210.638 57.752C213.987 59.2936 216.721 61.5218 218.84 64.4365C220.96 67.3512 222.261 70.8802 222.743 75.0234H211.253C210.819 72.0605 209.554 69.736 207.459 68.0498C205.363 66.3395 202.761 65.4844 199.654 65.4844C195.511 65.4844 192.174 67.026 189.645 70.1094C187.116 73.1686 185.851 77.5046 185.851 83.1172C185.851 88.8503 187.116 93.2103 189.645 96.1973C192.198 99.1842 195.523 100.678 199.618 100.678C202.629 100.678 205.182 99.8828 207.278 98.293C209.398 96.7031 210.723 94.4749 211.253 91.6084H222.743C222.333 94.9085 221.153 98.016 219.202 100.931C217.275 103.845 214.637 106.206 211.289 108.013C207.964 109.819 204.002 110.723 199.401 110.723ZM260.487 56.1621H271.833V91.0664C271.833 94.9928 270.905 98.4375 269.051 101.4C267.196 104.339 264.594 106.628 261.246 108.266C257.898 109.904 253.995 110.723 249.539 110.723C245.058 110.723 241.144 109.904 237.796 108.266C234.471 106.628 231.882 104.339 230.027 101.4C228.172 98.4375 227.245 94.9928 227.245 91.0664V56.1621H238.591V90.127C238.591 93.2103 239.59 95.7516 241.59 97.751C243.589 99.7262 246.239 100.714 249.539 100.714C252.839 100.714 255.489 99.7262 257.488 97.751C259.487 95.7516 260.487 93.2103 260.487 90.127V56.1621ZM297.473 110.759C290.945 110.759 285.729 109.265 281.827 106.278C277.949 103.291 275.925 98.8952 275.757 93.0898H286.777C286.97 95.7878 288.03 97.8232 289.957 99.1963C291.908 100.545 294.365 101.22 297.328 101.22C300.219 101.22 302.531 100.605 304.266 99.377C306.024 98.1484 306.903 96.5465 306.903 94.5713C306.903 92.7646 306.108 91.3796 304.519 90.416C302.929 89.4284 300.664 88.5853 297.726 87.8867L291.836 86.4414C287.307 85.3574 283.73 83.6351 281.104 81.2744C278.503 78.8896 277.202 75.71 277.202 71.7354C277.202 68.4834 278.081 65.641 279.84 63.208C281.598 60.751 284.007 58.848 287.066 57.499C290.15 56.126 293.655 55.4395 297.581 55.4395C301.58 55.4395 305.073 56.126 308.06 57.499C311.047 58.8721 313.371 60.7751 315.033 63.208C316.719 65.641 317.587 68.4473 317.635 71.627H306.65C306.458 69.5312 305.566 67.8932 303.977 66.7129C302.387 65.5326 300.231 64.9424 297.509 64.9424C294.739 64.9424 292.607 65.5205 291.113 66.6768C289.62 67.8089 288.873 69.2542 288.873 71.0127C288.873 72.9157 289.704 74.361 291.366 75.3486C293.028 76.3122 295.028 77.071 297.364 77.625L302.17 78.8174C305.301 79.516 308.084 80.5397 310.517 81.8887C312.95 83.2135 314.865 84.9238 316.262 87.0195C317.659 89.0911 318.357 91.6204 318.357 94.6074C318.357 99.5456 316.515 103.472 312.829 106.387C309.144 109.301 304.025 110.759 297.473 110.759ZM359.462 110.759C352.934 110.759 347.719 109.265 343.817 106.278C339.938 103.291 337.915 98.8952 337.746 93.0898H348.767C348.959 95.7878 350.019 97.8232 351.946 99.1963C353.898 100.545 356.355 101.22 359.318 101.22C362.208 101.22 364.521 100.605 366.255 99.377C368.014 98.1484 368.893 96.5465 368.893 94.5713C368.893 92.7646 368.098 91.3796 366.508 90.416C364.918 89.4284 362.654 88.5853 359.715 87.8867L353.825 86.4414C349.297 85.3574 345.72 83.6351 343.094 81.2744C340.492 78.8896 339.192 75.71 339.192 71.7354C339.192 68.4834 340.071 65.641 341.829 63.208C343.588 60.751 345.997 58.848 349.056 57.499C352.139 56.126 355.644 55.4395 359.57 55.4395C363.569 55.4395 367.062 56.126 370.049 57.499C373.036 58.8721 375.361 60.7751 377.023 63.208C378.709 65.641 379.576 68.4473 379.624 71.627H368.64C368.447 69.5312 367.556 67.8932 365.966 66.7129C364.376 65.5326 362.22 64.9424 359.498 64.9424C356.728 64.9424 354.596 65.5205 353.103 66.6768C351.609 67.8089 350.862 69.2542 350.862 71.0127C350.862 72.9157 351.694 74.361 353.356 75.3486C355.018 76.3122 357.017 77.071 359.354 77.625L364.159 78.8174C367.291 79.516 370.073 80.5397 372.506 81.8887C374.939 83.2135 376.854 84.9238 378.251 87.0195C379.648 89.0911 380.347 91.6204 380.347 94.6074C380.347 99.5456 378.504 103.472 374.819 106.387C371.133 109.301 366.014 110.759 359.462 110.759ZM408.408 110.723C403.614 110.723 399.326 109.639 395.544 107.471C391.762 105.303 388.775 102.159 386.583 98.04C384.415 93.9209 383.331 88.9466 383.331 83.1172C383.331 77.2396 384.427 72.2412 386.62 68.1221C388.836 64.0029 391.835 60.8594 395.617 58.6914C399.423 56.5234 403.686 55.4395 408.408 55.4395C412.575 55.4395 416.321 56.2103 419.645 57.752C422.993 59.2936 425.727 61.5218 427.847 64.4365C429.967 67.3512 431.268 70.8802 431.749 75.0234H420.259C419.826 72.0605 418.561 69.736 416.465 68.0498C414.37 66.3395 411.768 65.4844 408.661 65.4844C404.517 65.4844 401.181 67.026 398.652 70.1094C396.122 73.1686 394.858 77.5046 394.858 83.1172C394.858 88.8503 396.122 93.2103 398.652 96.1973C401.205 99.1842 404.529 100.678 408.624 100.678C411.635 100.678 414.189 99.8828 416.285 98.293C418.404 96.7031 419.729 94.4749 420.259 91.6084H431.749C431.34 94.9085 430.16 98.016 428.208 100.931C426.281 103.845 423.644 106.206 420.295 108.013C416.971 109.819 413.009 110.723 408.408 110.723ZM460.497 110.723C455.727 110.723 451.439 109.639 447.633 107.471C443.827 105.303 440.816 102.159 438.6 98.04C436.384 93.9209 435.276 88.9466 435.276 83.1172C435.276 77.2396 436.384 72.2412 438.6 68.1221C440.816 64.0029 443.827 60.8594 447.633 58.6914C451.439 56.5234 455.727 55.4395 460.497 55.4395C465.266 55.4395 469.542 56.5234 473.324 58.6914C477.13 60.8594 480.141 64.0029 482.357 68.1221C484.573 72.2412 485.681 77.2396 485.681 83.1172C485.681 88.9948 484.573 93.9932 482.357 98.1123C480.141 102.207 477.13 105.339 473.324 107.507C469.542 109.651 465.266 110.723 460.497 110.723ZM446.802 83.1172C446.802 88.8021 448.043 93.1501 450.524 96.1611C453.029 99.1722 456.353 100.678 460.497 100.678C464.616 100.678 467.916 99.1722 470.397 96.1611C472.902 93.1501 474.155 88.8021 474.155 83.1172C474.155 77.4082 472.902 73.0482 470.397 70.0371C467.916 67.002 464.616 65.4844 460.497 65.4844C456.353 65.4844 453.029 67.002 450.524 70.0371C448.043 73.0482 446.802 77.4082 446.802 83.1172ZM488.377 65.5566V56.1621H532.567V65.5566H516.163V110H504.817V65.5566H488.377ZM534.179 65.5566V56.1621H578.369V65.5566H561.965V110H550.619V65.5566H534.179Z" fill="black"/>
<path d="M16.5547 171V130.258H32.8516C37.3359 130.258 40.7083 131.242 42.9688 133.211C45.2292 135.161 46.3594 137.659 46.3594 140.703C46.3594 143.091 45.6576 145.033 44.2539 146.527C42.8685 148.004 41.1185 148.979 39.0039 149.453V149.863C40.5534 149.936 42.0026 150.374 43.3516 151.176C44.7188 151.978 45.8216 153.108 46.6602 154.566C47.5169 156.007 47.9453 157.729 47.9453 159.734C47.9453 161.885 47.4167 163.818 46.3594 165.531C45.3021 167.227 43.7344 168.566 41.6562 169.551C39.5781 170.517 37.0078 171 33.9453 171H16.5547ZM31.5391 147.32C33.2891 147.32 34.7474 146.855 35.9141 145.926C37.0807 144.996 37.6641 143.729 37.6641 142.125C37.6641 140.667 37.1445 139.491 36.1055 138.598C35.0664 137.686 33.599 137.23 31.7031 137.23H25.1406V147.32H31.5391ZM32.168 163.973C34.5742 163.973 36.3242 163.508 37.418 162.578C38.5299 161.648 39.0859 160.418 39.0859 158.887C39.0859 157.21 38.4844 155.833 37.2812 154.758C36.0781 153.664 34.4466 153.117 32.3867 153.117H25.1406V163.973H32.168ZM62.1641 130.258V171H53.5781V130.258H62.1641ZM69.2734 171V130.258H77.8594V148.223H78.3789L93.0625 130.258H103.371L88.2773 148.496L103.562 171H93.2266L82.0977 154.266L77.8594 159.434V171H69.2734ZM107.938 171V130.258H135.391V137.367H116.523V146.938H133.941V153.91H116.523V163.891H135.445V171H107.938ZM173.48 171.547C169.853 171.547 166.608 170.727 163.746 169.086C160.884 167.445 158.624 165.066 156.965 161.949C155.324 158.832 154.504 155.068 154.504 150.656C154.504 146.208 155.333 142.426 156.992 139.309C158.669 136.191 160.939 133.812 163.801 132.172C166.681 130.531 169.908 129.711 173.48 129.711C176.634 129.711 179.469 130.294 181.984 131.461C184.518 132.628 186.587 134.314 188.191 136.52C189.796 138.725 190.78 141.396 191.145 144.531H182.449C182.121 142.289 181.164 140.53 179.578 139.254C177.992 137.96 176.023 137.312 173.672 137.312C170.536 137.312 168.012 138.479 166.098 140.812C164.184 143.128 163.227 146.409 163.227 150.656C163.227 154.995 164.184 158.294 166.098 160.555C168.03 162.815 170.546 163.945 173.645 163.945C175.923 163.945 177.855 163.344 179.441 162.141C181.046 160.938 182.048 159.251 182.449 157.082H191.145C190.835 159.579 189.941 161.931 188.465 164.137C187.007 166.342 185.01 168.129 182.477 169.496C179.961 170.863 176.962 171.547 173.48 171.547ZM215.699 171.547C212.09 171.547 208.845 170.727 205.965 169.086C203.085 167.445 200.806 165.066 199.129 161.949C197.452 158.832 196.613 155.068 196.613 150.656C196.613 146.208 197.452 142.426 199.129 139.309C200.806 136.191 203.085 133.812 205.965 132.172C208.845 130.531 212.09 129.711 215.699 129.711C219.309 129.711 222.544 130.531 225.406 132.172C228.286 133.812 230.565 136.191 232.242 139.309C233.919 142.426 234.758 146.208 234.758 150.656C234.758 155.104 233.919 158.887 232.242 162.004C230.565 165.103 228.286 167.473 225.406 169.113C222.544 170.736 219.309 171.547 215.699 171.547ZM205.336 150.656C205.336 154.958 206.275 158.249 208.152 160.527C210.048 162.806 212.564 163.945 215.699 163.945C218.816 163.945 221.314 162.806 223.191 160.527C225.087 158.249 226.035 154.958 226.035 150.656C226.035 146.336 225.087 143.036 223.191 140.758C221.314 138.461 218.816 137.312 215.699 137.312C212.564 137.312 210.048 138.461 208.152 140.758C206.275 143.036 205.336 146.336 205.336 150.656ZM241.156 130.258H251.766L262.977 157.629H263.441L274.68 130.258H285.371V171H276.922V144.477H276.621L266.039 170.809H260.324L249.852 144.422H249.496V171H241.156V130.258ZM292.453 171V130.258H308.477C311.576 130.258 314.21 130.85 316.379 132.035C318.566 133.22 320.234 134.852 321.383 136.93C322.531 139.008 323.105 141.396 323.105 144.094C323.105 146.792 322.522 149.171 321.355 151.23C320.189 153.29 318.503 154.904 316.297 156.07C314.091 157.219 311.421 157.793 308.285 157.793H301.039V171H292.453ZM301.039 150.902H306.863C309.361 150.902 311.211 150.273 312.414 149.016C313.635 147.74 314.246 146.099 314.246 144.094C314.246 142.052 313.635 140.411 312.414 139.172C311.193 137.932 309.333 137.312 306.836 137.312H301.039V150.902ZM335.711 171H326.469L340.551 130.258H351.625L365.68 171H356.465L353.43 161.703H338.719L335.711 171ZM340.906 154.977H351.242L346.238 139.555H345.91L340.906 154.977ZM404.617 130.258V171H397.152L379.461 145.379H379.133V171H370.547V130.258H378.094L395.676 155.879H396.031V130.258H404.617ZM409.293 130.258H418.973L428.242 147.812H428.652L437.949 130.258H447.602L432.727 156.617V171H424.168V156.617L409.293 130.258ZM473.906 130.258V171H465.32V130.258H473.906ZM515.086 130.258V171H507.621L489.93 145.379H489.602V171H481.016V130.258H488.562L506.145 155.879H506.5V130.258H515.086ZM540.434 171.547C536.806 171.547 533.561 170.727 530.699 169.086C527.837 167.445 525.577 165.066 523.918 161.949C522.277 158.832 521.457 155.068 521.457 150.656C521.457 146.208 522.286 142.426 523.945 139.309C525.622 136.191 527.892 133.812 530.754 132.172C533.634 130.531 536.861 129.711 540.434 129.711C543.587 129.711 546.422 130.294 548.938 131.461C551.471 132.628 553.54 134.314 555.145 136.52C556.749 138.725 557.733 141.396 558.098 144.531H549.402C549.074 142.289 548.117 140.53 546.531 139.254C544.945 137.96 542.977 137.312 540.625 137.312C537.49 137.312 534.965 138.479 533.051 140.812C531.137 143.128 530.18 146.409 530.18 150.656C530.18 154.995 531.137 158.294 533.051 160.555C534.983 162.815 537.499 163.945 540.598 163.945C542.876 163.945 544.809 163.344 546.395 162.141C547.999 160.938 549.001 159.251 549.402 157.082H558.098C557.788 159.579 556.895 161.931 555.418 164.137C553.96 166.342 551.964 168.129 549.43 169.496C546.914 170.863 543.915 171.547 540.434 171.547ZM570.211 171.52C568.862 171.52 567.723 171.064 566.793 170.152C565.863 169.223 565.398 168.092 565.398 166.762C565.398 165.413 565.863 164.283 566.793 163.371C567.723 162.46 568.862 162.004 570.211 162.004C571.56 162.004 572.699 162.46 573.629 163.371C574.559 164.283 575.023 165.413 575.023 166.762C575.023 168.092 574.559 169.223 573.629 170.152C572.699 171.064 571.56 171.52 570.211 171.52Z" fill="black"/>
<path d="M5.99414 266.185C4.40625 266.185 3.1377 265.821 2.18848 265.095C1.24512 264.368 0.75293 263.299 0.711914 261.887H3.39258C3.43945 262.543 3.69727 263.038 4.16602 263.372C4.64062 263.7 5.23828 263.864 5.95898 263.864C6.66211 263.864 7.22461 263.715 7.64648 263.416C8.07422 263.117 8.28809 262.728 8.28809 262.247C8.28809 261.808 8.09473 261.471 7.70801 261.236C7.32129 260.996 6.77051 260.791 6.05566 260.621L4.62305 260.27C3.52148 260.006 2.65137 259.587 2.0127 259.013C1.37988 258.433 1.06348 257.659 1.06348 256.692C1.06348 255.901 1.27734 255.21 1.70508 254.618C2.13281 254.021 2.71875 253.558 3.46289 253.229C4.21289 252.896 5.06543 252.729 6.02051 252.729C6.99316 252.729 7.84277 252.896 8.56934 253.229C9.2959 253.563 9.86133 254.026 10.2656 254.618C10.6758 255.21 10.8867 255.893 10.8984 256.666H8.22656C8.17969 256.156 7.96289 255.758 7.57617 255.471C7.18945 255.184 6.66504 255.04 6.00293 255.04C5.3291 255.04 4.81055 255.181 4.44727 255.462C4.08398 255.737 3.90234 256.089 3.90234 256.517C3.90234 256.979 4.10449 257.331 4.50879 257.571C4.91309 257.806 5.39941 257.99 5.96777 258.125L7.13672 258.415C7.89844 258.585 8.5752 258.834 9.16699 259.162C9.75879 259.484 10.2246 259.9 10.5645 260.41C10.9043 260.914 11.0742 261.529 11.0742 262.256C11.0742 263.457 10.626 264.412 9.72949 265.121C8.83301 265.83 7.58789 266.185 5.99414 266.185ZM17.3584 266.193C16.3506 266.193 15.4834 265.988 14.7568 265.578C14.0303 265.168 13.4707 264.585 13.0781 263.829C12.6855 263.067 12.4893 262.168 12.4893 261.131C12.4893 260.123 12.6826 259.238 13.0693 258.477C13.4619 257.715 14.0127 257.12 14.7217 256.692C15.4307 256.265 16.2656 256.051 17.2266 256.051C18.0938 256.051 18.876 256.235 19.5732 256.604C20.2764 256.974 20.833 257.527 21.2432 258.266C21.6592 259.004 21.8672 259.93 21.8672 261.043V261.781H15.1699C15.1992 262.525 15.416 263.108 15.8203 263.53C16.2246 263.952 16.752 264.163 17.4023 264.163C17.8535 264.163 18.2402 264.066 18.5625 263.873C18.8906 263.68 19.125 263.398 19.2656 263.029L21.7793 263.196C21.5859 264.099 21.1025 264.825 20.3291 265.376C19.5615 265.921 18.5713 266.193 17.3584 266.193ZM15.1875 260.103H19.2568C19.1924 259.481 18.9932 258.989 18.6592 258.626C18.3252 258.263 17.8564 258.081 17.2529 258.081C16.6436 258.081 16.1602 258.271 15.8027 258.652C15.4512 259.027 15.2461 259.511 15.1875 260.103ZM23.6602 266V256.174H26.2969V257.896H26.4023C26.5781 257.287 26.877 256.827 27.2988 256.517C27.7207 256.2 28.207 256.042 28.7578 256.042C28.8926 256.042 29.0391 256.051 29.1973 256.068C29.3555 256.086 29.4932 256.109 29.6104 256.139V258.547C29.4814 258.506 29.3027 258.474 29.0742 258.45C28.8516 258.421 28.6465 258.406 28.459 258.406C27.8613 258.406 27.3662 258.597 26.9736 258.978C26.5811 259.353 26.3848 259.842 26.3848 260.445V266H23.6602ZM40.1748 256.174L36.7383 266H33.6621L30.2432 256.174H33.126L35.1914 263.214H35.2969L37.3271 256.174H40.1748ZM41.5723 266V256.174H44.2969V266H41.5723ZM42.9346 254.917C42.5303 254.917 42.1816 254.782 41.8887 254.513C41.6016 254.243 41.458 253.918 41.458 253.537C41.458 253.156 41.6016 252.834 41.8887 252.57C42.1816 252.301 42.5303 252.166 42.9346 252.166C43.3389 252.166 43.6846 252.301 43.9717 252.57C44.2646 252.834 44.4111 253.156 44.4111 253.537C44.4111 253.918 44.2646 254.243 43.9717 254.513C43.6846 254.782 43.3389 254.917 42.9346 254.917ZM49.2012 260.322V266H46.4766V256.174H49.1572V257.923H49.2539C49.4766 257.349 49.8311 256.895 50.3174 256.561C50.8037 256.221 51.4102 256.051 52.1367 256.051C53.1621 256.051 53.9824 256.382 54.5977 257.044C55.2188 257.7 55.5293 258.603 55.5293 259.751V266H52.8047V260.234C52.8047 259.631 52.6494 259.159 52.3389 258.819C52.0342 258.479 51.6094 258.31 51.0645 258.31C50.5137 258.31 50.0654 258.488 49.7197 258.846C49.374 259.197 49.2012 259.689 49.2012 260.322ZM62.1123 269.885C60.7881 269.885 59.748 269.621 58.9922 269.094C58.2422 268.572 57.7881 267.922 57.6299 267.143L60.1436 266.809C60.2549 267.107 60.4688 267.368 60.7852 267.591C61.1074 267.813 61.5703 267.925 62.1738 267.925C62.7656 267.925 63.2549 267.781 63.6416 267.494C64.0283 267.213 64.2217 266.735 64.2217 266.062V264.26H64.0986C63.9229 264.67 63.6064 265.039 63.1494 265.367C62.6982 265.695 62.0801 265.859 61.2949 265.859C60.5625 265.859 59.8945 265.689 59.291 265.35C58.6875 265.004 58.207 264.477 57.8496 263.768C57.4922 263.059 57.3135 262.162 57.3135 261.078C57.3135 259.959 57.4951 259.027 57.8584 258.283C58.2275 257.539 58.7139 256.982 59.3174 256.613C59.9209 256.238 60.583 256.051 61.3037 256.051C61.8486 256.051 62.3086 256.145 62.6836 256.332C63.0586 256.514 63.3604 256.742 63.5889 257.018C63.8232 257.293 64.002 257.565 64.125 257.835H64.2305V256.174H66.9023V266.105C66.9023 266.938 66.6973 267.635 66.2871 268.197C65.877 268.76 65.3115 269.182 64.5908 269.463C63.876 269.744 63.0498 269.885 62.1123 269.885ZM60.0996 261.061C60.0996 261.904 60.2754 262.575 60.627 263.073C60.9844 263.565 61.4971 263.812 62.165 263.812C62.8213 263.812 63.3281 263.568 63.6855 263.082C64.0488 262.596 64.2305 261.922 64.2305 261.061C64.2305 260.199 64.0518 259.511 63.6943 258.995C63.3369 258.474 62.8271 258.213 62.165 258.213C61.4912 258.213 60.9785 258.479 60.627 259.013C60.2754 259.54 60.0996 260.223 60.0996 261.061ZM73.3184 266V252.904H81.9844V255.189H76.0781V258.784H81.4043V261.025H76.0781V266H73.3184ZM86.5986 266.185C85.6611 266.185 84.8818 265.941 84.2607 265.455C83.6455 264.963 83.3379 264.23 83.3379 263.258C83.3379 262.525 83.5078 261.951 83.8477 261.535C84.1934 261.113 84.6475 260.806 85.21 260.612C85.7725 260.413 86.376 260.284 87.0205 260.226C87.876 260.144 88.4854 260.059 88.8486 259.971C89.2178 259.877 89.4023 259.672 89.4023 259.355V259.312C89.4023 258.907 89.2734 258.594 89.0156 258.371C88.7578 258.148 88.3857 258.037 87.8994 258.037C87.4131 258.037 87.0146 258.143 86.7041 258.354C86.3994 258.564 86.1973 258.834 86.0977 259.162L83.6191 258.767C83.8535 257.911 84.3457 257.246 85.0957 256.771C85.8516 256.291 86.7891 256.051 87.9082 256.051C88.6348 256.051 89.3174 256.165 89.9561 256.394C90.6006 256.622 91.1221 256.982 91.5205 257.475C91.9189 257.961 92.1182 258.594 92.1182 259.373V266H89.543V264.629H89.4639C89.2236 265.092 88.8662 265.467 88.3916 265.754C87.9229 266.041 87.3252 266.185 86.5986 266.185ZM85.9307 263.17C85.9307 263.545 86.0654 263.829 86.335 264.022C86.6104 264.21 86.9561 264.304 87.3721 264.304C87.9697 264.304 88.459 264.131 88.8398 263.785C89.2266 263.439 89.4199 263.009 89.4199 262.493V261.447C89.3145 261.518 89.1475 261.582 88.9189 261.641C88.6963 261.699 88.459 261.749 88.207 261.79C87.9551 261.825 87.7295 261.857 87.5303 261.887C87.0498 261.957 86.6631 262.095 86.3701 262.3C86.0771 262.499 85.9307 262.789 85.9307 263.17ZM98.7363 266.193C97.7285 266.193 96.8643 265.979 96.1436 265.552C95.4229 265.124 94.8691 264.529 94.4824 263.768C94.1016 263.006 93.9111 262.127 93.9111 261.131C93.9111 260.123 94.1045 259.238 94.4912 258.477C94.8838 257.715 95.4404 257.12 96.1611 256.692C96.8818 256.265 97.7373 256.051 98.7275 256.051C99.583 256.051 100.333 256.206 100.978 256.517C101.622 256.827 102.132 257.264 102.507 257.826C102.882 258.389 103.087 259.051 103.122 259.812H100.556C100.479 259.326 100.289 258.934 99.9844 258.635C99.6797 258.33 99.2754 258.178 98.7715 258.178C98.1387 258.178 97.6318 258.433 97.251 258.942C96.8701 259.446 96.6797 260.164 96.6797 261.096C96.6797 262.033 96.8672 262.763 97.2422 263.284C97.623 263.806 98.1328 264.066 98.7715 264.066C99.2402 264.066 99.6357 263.92 99.958 263.627C100.28 263.334 100.479 262.924 100.556 262.396H103.122C103.081 263.146 102.879 263.809 102.516 264.383C102.152 264.951 101.648 265.396 101.004 265.719C100.365 266.035 99.6094 266.193 98.7363 266.193ZM110.109 256.174V258.23H108.246V262.977C108.246 263.615 108.557 263.935 109.178 263.935C109.283 263.935 109.397 263.926 109.521 263.908C109.649 263.891 109.761 263.87 109.854 263.847L110.285 265.886C109.705 266.056 109.143 266.141 108.598 266.141C107.625 266.141 106.869 265.895 106.33 265.402C105.797 264.91 105.53 264.222 105.53 263.337V258.23H104.194V256.174H105.53V253.836H108.246V256.174H110.109ZM116.314 266.193C115.324 266.193 114.466 265.982 113.739 265.561C113.019 265.133 112.462 264.541 112.069 263.785C111.683 263.023 111.489 262.139 111.489 261.131C111.489 260.117 111.683 259.229 112.069 258.468C112.462 257.706 113.019 257.114 113.739 256.692C114.466 256.265 115.324 256.051 116.314 256.051C117.311 256.051 118.169 256.265 118.89 256.692C119.616 257.114 120.173 257.706 120.56 258.468C120.952 259.229 121.148 260.117 121.148 261.131C121.148 262.139 120.952 263.023 120.56 263.785C120.173 264.541 119.616 265.133 118.89 265.561C118.169 265.982 117.311 266.193 116.314 266.193ZM114.258 261.113C114.258 261.969 114.431 262.675 114.776 263.231C115.122 263.788 115.638 264.066 116.323 264.066C117.003 264.066 117.516 263.788 117.861 263.231C118.207 262.675 118.38 261.969 118.38 261.113C118.38 260.258 118.207 259.555 117.861 259.004C117.516 258.453 117.003 258.178 116.323 258.178C115.638 258.178 115.122 258.453 114.776 259.004C114.431 259.555 114.258 260.258 114.258 261.113ZM122.941 266V256.174H125.578V257.896H125.684C125.859 257.287 126.158 256.827 126.58 256.517C127.002 256.2 127.488 256.042 128.039 256.042C128.174 256.042 128.32 256.051 128.479 256.068C128.637 256.086 128.774 256.109 128.892 256.139V258.547C128.763 258.506 128.584 258.474 128.355 258.45C128.133 258.421 127.928 258.406 127.74 258.406C127.143 258.406 126.647 258.597 126.255 258.978C125.862 259.353 125.666 259.842 125.666 260.445V266H122.941ZM130.307 266V256.174H133.031V266H130.307ZM131.669 254.917C131.265 254.917 130.916 254.782 130.623 254.513C130.336 254.243 130.192 253.918 130.192 253.537C130.192 253.156 130.336 252.834 130.623 252.57C130.916 252.301 131.265 252.166 131.669 252.166C132.073 252.166 132.419 252.301 132.706 252.57C132.999 252.834 133.146 253.156 133.146 253.537C133.146 253.918 132.999 254.243 132.706 254.513C132.419 254.782 132.073 254.917 131.669 254.917ZM138.015 266.185C137.077 266.185 136.298 265.941 135.677 265.455C135.062 264.963 134.754 264.23 134.754 263.258C134.754 262.525 134.924 261.951 135.264 261.535C135.609 261.113 136.063 260.806 136.626 260.612C137.188 260.413 137.792 260.284 138.437 260.226C139.292 260.144 139.901 260.059 140.265 259.971C140.634 259.877 140.818 259.672 140.818 259.355V259.312C140.818 258.907 140.689 258.594 140.432 258.371C140.174 258.148 139.802 258.037 139.315 258.037C138.829 258.037 138.431 258.143 138.12 258.354C137.815 258.564 137.613 258.834 137.514 259.162L135.035 258.767C135.27 257.911 135.762 257.246 136.512 256.771C137.268 256.291 138.205 256.051 139.324 256.051C140.051 256.051 140.733 256.165 141.372 256.394C142.017 256.622 142.538 256.982 142.937 257.475C143.335 257.961 143.534 258.594 143.534 259.373V266H140.959V264.629H140.88C140.64 265.092 140.282 265.467 139.808 265.754C139.339 266.041 138.741 266.185 138.015 266.185ZM137.347 263.17C137.347 263.545 137.481 263.829 137.751 264.022C138.026 264.21 138.372 264.304 138.788 264.304C139.386 264.304 139.875 264.131 140.256 263.785C140.643 263.439 140.836 263.009 140.836 262.493V261.447C140.73 261.518 140.563 261.582 140.335 261.641C140.112 261.699 139.875 261.749 139.623 261.79C139.371 261.825 139.146 261.857 138.946 261.887C138.466 261.957 138.079 262.095 137.786 262.3C137.493 262.499 137.347 262.789 137.347 263.17ZM148.447 252.904V266H145.723V252.904H148.447ZM150.996 258.389L151.77 252.904H154.468L152.833 258.389H150.996ZM165.182 258.978L162.703 259.127C162.633 258.816 162.457 258.55 162.176 258.327C161.9 258.099 161.525 257.984 161.051 257.984C160.629 257.984 160.274 258.072 159.987 258.248C159.7 258.424 159.557 258.658 159.557 258.951C159.557 259.186 159.65 259.385 159.838 259.549C160.025 259.713 160.345 259.845 160.796 259.944L162.58 260.296C164.467 260.671 165.41 261.556 165.41 262.95C165.41 263.601 165.223 264.169 164.848 264.655C164.473 265.142 163.957 265.52 163.301 265.789C162.645 266.059 161.892 266.193 161.042 266.193C159.741 266.193 158.707 265.924 157.939 265.385C157.172 264.84 156.721 264.099 156.586 263.161L159.258 263.021C159.439 263.829 160.037 264.233 161.051 264.233C161.525 264.233 161.909 264.14 162.202 263.952C162.495 263.765 162.642 263.527 162.642 263.24C162.642 262.754 162.223 262.426 161.385 262.256L159.688 261.904C157.796 261.523 156.85 260.592 156.85 259.109C156.85 258.16 157.228 257.413 157.983 256.868C158.745 256.323 159.753 256.051 161.007 256.051C162.249 256.051 163.228 256.314 163.942 256.842C164.657 257.363 165.07 258.075 165.182 258.978ZM171.369 266V252.904H176.607C178.049 252.904 179.133 253.221 179.859 253.854C180.586 254.48 180.949 255.283 180.949 256.262C180.949 257.029 180.724 257.653 180.272 258.134C179.827 258.608 179.265 258.922 178.585 259.074V259.206C179.083 259.229 179.549 259.37 179.982 259.628C180.422 259.886 180.776 260.249 181.046 260.718C181.321 261.181 181.459 261.734 181.459 262.379C181.459 263.07 181.289 263.691 180.949 264.242C180.609 264.787 180.105 265.218 179.438 265.534C178.77 265.845 177.943 266 176.959 266H171.369ZM176.186 258.389C176.748 258.389 177.217 258.239 177.592 257.94C177.967 257.642 178.154 257.234 178.154 256.719C178.154 256.25 177.987 255.872 177.653 255.585C177.319 255.292 176.848 255.146 176.238 255.146H174.129V258.389H176.186ZM176.388 263.741C177.161 263.741 177.724 263.592 178.075 263.293C178.433 262.994 178.611 262.599 178.611 262.106C178.611 261.567 178.418 261.125 178.031 260.779C177.645 260.428 177.12 260.252 176.458 260.252H174.129V263.741H176.388ZM183.217 266V256.174H185.941V266H183.217ZM184.579 254.917C184.175 254.917 183.826 254.782 183.533 254.513C183.246 254.243 183.103 253.918 183.103 253.537C183.103 253.156 183.246 252.834 183.533 252.57C183.826 252.301 184.175 252.166 184.579 252.166C184.983 252.166 185.329 252.301 185.616 252.57C185.909 252.834 186.056 253.156 186.056 253.537C186.056 253.918 185.909 254.243 185.616 254.513C185.329 254.782 184.983 254.917 184.579 254.917ZM188.121 252.904H190.846V259.909H190.995L194.133 256.174H197.262L193.623 260.437L197.438 266H194.256L191.584 262.036L190.846 262.871V266H188.121V252.904ZM203.071 266.193C202.063 266.193 201.196 265.988 200.47 265.578C199.743 265.168 199.184 264.585 198.791 263.829C198.398 263.067 198.202 262.168 198.202 261.131C198.202 260.123 198.396 259.238 198.782 258.477C199.175 257.715 199.726 257.12 200.435 256.692C201.144 256.265 201.979 256.051 202.939 256.051C203.807 256.051 204.589 256.235 205.286 256.604C205.989 256.974 206.546 257.527 206.956 258.266C207.372 259.004 207.58 259.93 207.58 261.043V261.781H200.883C200.912 262.525 201.129 263.108 201.533 263.53C201.938 263.952 202.465 264.163 203.115 264.163C203.566 264.163 203.953 264.066 204.275 263.873C204.604 263.68 204.838 263.398 204.979 263.029L207.492 263.196C207.299 264.099 206.815 264.825 206.042 265.376C205.274 265.921 204.284 266.193 203.071 266.193ZM200.9 260.103H204.97C204.905 259.481 204.706 258.989 204.372 258.626C204.038 258.263 203.569 258.081 202.966 258.081C202.356 258.081 201.873 258.271 201.516 258.652C201.164 259.027 200.959 259.511 200.9 260.103ZM224.561 252.904V266H222.161L216.475 257.765H216.369V266H213.609V252.904H216.035L221.687 261.14H221.801V252.904H224.561ZM231.267 266.193C230.259 266.193 229.392 265.988 228.665 265.578C227.938 265.168 227.379 264.585 226.986 263.829C226.594 263.067 226.397 262.168 226.397 261.131C226.397 260.123 226.591 259.238 226.978 258.477C227.37 257.715 227.921 257.12 228.63 256.692C229.339 256.265 230.174 256.051 231.135 256.051C232.002 256.051 232.784 256.235 233.481 256.604C234.185 256.974 234.741 257.527 235.151 258.266C235.567 259.004 235.775 259.93 235.775 261.043V261.781H229.078C229.107 262.525 229.324 263.108 229.729 263.53C230.133 263.952 230.66 264.163 231.311 264.163C231.762 264.163 232.148 264.066 232.471 263.873C232.799 263.68 233.033 263.398 233.174 263.029L235.688 263.196C235.494 264.099 235.011 264.825 234.237 265.376C233.47 265.921 232.479 266.193 231.267 266.193ZM229.096 260.103H233.165C233.101 259.481 232.901 258.989 232.567 258.626C232.233 258.263 231.765 258.081 231.161 258.081C230.552 258.081 230.068 258.271 229.711 258.652C229.359 259.027 229.154 259.511 229.096 260.103ZM242.042 266.193C241.034 266.193 240.167 265.988 239.44 265.578C238.714 265.168 238.154 264.585 237.762 263.829C237.369 263.067 237.173 262.168 237.173 261.131C237.173 260.123 237.366 259.238 237.753 258.477C238.146 257.715 238.696 257.12 239.405 256.692C240.114 256.265 240.949 256.051 241.91 256.051C242.777 256.051 243.56 256.235 244.257 256.604C244.96 256.974 245.517 257.527 245.927 258.266C246.343 259.004 246.551 259.93 246.551 261.043V261.781H239.854C239.883 262.525 240.1 263.108 240.504 263.53C240.908 263.952 241.436 264.163 242.086 264.163C242.537 264.163 242.924 264.066 243.246 263.873C243.574 263.68 243.809 263.398 243.949 263.029L246.463 263.196C246.27 264.099 245.786 264.825 245.013 265.376C244.245 265.921 243.255 266.193 242.042 266.193ZM239.871 260.103H243.94C243.876 259.481 243.677 258.989 243.343 258.626C243.009 258.263 242.54 258.081 241.937 258.081C241.327 258.081 240.844 258.271 240.486 258.652C240.135 259.027 239.93 259.511 239.871 260.103ZM251.938 266.158C251.188 266.158 250.512 265.965 249.908 265.578C249.305 265.191 248.827 264.623 248.476 263.873C248.124 263.117 247.948 262.194 247.948 261.104C247.948 259.979 248.13 259.042 248.493 258.292C248.856 257.542 249.34 256.982 249.943 256.613C250.547 256.238 251.206 256.051 251.921 256.051C252.472 256.051 252.932 256.145 253.301 256.332C253.67 256.514 253.969 256.742 254.197 257.018C254.426 257.293 254.599 257.565 254.716 257.835H254.795V252.904H257.52V266H254.839V264.427H254.716C254.593 264.696 254.414 264.966 254.18 265.235C253.945 265.499 253.644 265.719 253.274 265.895C252.911 266.07 252.466 266.158 251.938 266.158ZM254.856 261.096C254.856 260.217 254.678 259.517 254.32 258.995C253.963 258.474 253.453 258.213 252.791 258.213C252.117 258.213 251.604 258.479 251.253 259.013C250.907 259.546 250.734 260.24 250.734 261.096C250.734 261.945 250.91 262.643 251.262 263.188C251.613 263.727 252.123 263.996 252.791 263.996C253.447 263.996 253.954 263.729 254.312 263.196C254.675 262.663 254.856 261.963 254.856 261.096ZM267.855 258.978L265.377 259.127C265.307 258.816 265.131 258.55 264.85 258.327C264.574 258.099 264.199 257.984 263.725 257.984C263.303 257.984 262.948 258.072 262.661 258.248C262.374 258.424 262.23 258.658 262.23 258.951C262.23 259.186 262.324 259.385 262.512 259.549C262.699 259.713 263.019 259.845 263.47 259.944L265.254 260.296C267.141 260.671 268.084 261.556 268.084 262.95C268.084 263.601 267.896 264.169 267.521 264.655C267.146 265.142 266.631 265.52 265.975 265.789C265.318 266.059 264.565 266.193 263.716 266.193C262.415 266.193 261.381 265.924 260.613 265.385C259.846 264.84 259.395 264.099 259.26 263.161L261.932 263.021C262.113 263.829 262.711 264.233 263.725 264.233C264.199 264.233 264.583 264.14 264.876 263.952C265.169 263.765 265.315 263.527 265.315 263.24C265.315 262.754 264.896 262.426 264.059 262.256L262.362 261.904C260.47 261.523 259.523 260.592 259.523 259.109C259.523 258.16 259.901 257.413 260.657 256.868C261.419 256.323 262.427 256.051 263.681 256.051C264.923 256.051 265.901 256.314 266.616 256.842C267.331 257.363 267.744 258.075 267.855 258.978ZM278.895 266.185C277.307 266.185 276.038 265.821 275.089 265.095C274.146 264.368 273.653 263.299 273.612 261.887H276.293C276.34 262.543 276.598 263.038 277.066 263.372C277.541 263.7 278.139 263.864 278.859 263.864C279.562 263.864 280.125 263.715 280.547 263.416C280.975 263.117 281.188 262.728 281.188 262.247C281.188 261.808 280.995 261.471 280.608 261.236C280.222 260.996 279.671 260.791 278.956 260.621L277.523 260.27C276.422 260.006 275.552 259.587 274.913 259.013C274.28 258.433 273.964 257.659 273.964 256.692C273.964 255.901 274.178 255.21 274.605 254.618C275.033 254.021 275.619 253.558 276.363 253.229C277.113 252.896 277.966 252.729 278.921 252.729C279.894 252.729 280.743 252.896 281.47 253.229C282.196 253.563 282.762 254.026 283.166 254.618C283.576 255.21 283.787 255.893 283.799 256.666H281.127C281.08 256.156 280.863 255.758 280.477 255.471C280.09 255.184 279.565 255.04 278.903 255.04C278.229 255.04 277.711 255.181 277.348 255.462C276.984 255.737 276.803 256.089 276.803 256.517C276.803 256.979 277.005 257.331 277.409 257.571C277.813 257.806 278.3 257.99 278.868 258.125L280.037 258.415C280.799 258.585 281.476 258.834 282.067 259.162C282.659 259.484 283.125 259.9 283.465 260.41C283.805 260.914 283.975 261.529 283.975 262.256C283.975 263.457 283.526 264.412 282.63 265.121C281.733 265.83 280.488 266.185 278.895 266.185ZM285.785 266V256.174H288.51V266H285.785ZM287.147 254.917C286.743 254.917 286.395 254.782 286.102 254.513C285.814 254.243 285.671 253.918 285.671 253.537C285.671 253.156 285.814 252.834 286.102 252.57C286.395 252.301 286.743 252.166 287.147 252.166C287.552 252.166 287.897 252.301 288.185 252.57C288.478 252.834 288.624 253.156 288.624 253.537C288.624 253.918 288.478 254.243 288.185 254.513C287.897 254.782 287.552 254.917 287.147 254.917ZM293.414 260.322V266H290.689V256.174H293.37V257.923H293.467C293.689 257.349 294.044 256.895 294.53 256.561C295.017 256.221 295.623 256.051 296.35 256.051C297.375 256.051 298.195 256.382 298.811 257.044C299.432 257.7 299.742 258.603 299.742 259.751V266H297.018V260.234C297.018 259.631 296.862 259.159 296.552 258.819C296.247 258.479 295.822 258.31 295.277 258.31C294.727 258.31 294.278 258.488 293.933 258.846C293.587 259.197 293.414 259.689 293.414 260.322ZM306.352 266.193C305.344 266.193 304.479 265.979 303.759 265.552C303.038 265.124 302.484 264.529 302.098 263.768C301.717 263.006 301.526 262.127 301.526 261.131C301.526 260.123 301.72 259.238 302.106 258.477C302.499 257.715 303.056 257.12 303.776 256.692C304.497 256.265 305.353 256.051 306.343 256.051C307.198 256.051 307.948 256.206 308.593 256.517C309.237 256.827 309.747 257.264 310.122 257.826C310.497 258.389 310.702 259.051 310.737 259.812H308.171C308.095 259.326 307.904 258.934 307.6 258.635C307.295 258.33 306.891 258.178 306.387 258.178C305.754 258.178 305.247 258.433 304.866 258.942C304.485 259.446 304.295 260.164 304.295 261.096C304.295 262.033 304.482 262.763 304.857 263.284C305.238 263.806 305.748 264.066 306.387 264.066C306.855 264.066 307.251 263.92 307.573 263.627C307.896 263.334 308.095 262.924 308.171 262.396H310.737C310.696 263.146 310.494 263.809 310.131 264.383C309.768 264.951 309.264 265.396 308.619 265.719C307.98 266.035 307.225 266.193 306.352 266.193ZM316.978 266.193C315.97 266.193 315.103 265.988 314.376 265.578C313.649 265.168 313.09 264.585 312.697 263.829C312.305 263.067 312.108 262.168 312.108 261.131C312.108 260.123 312.302 259.238 312.688 258.477C313.081 257.715 313.632 257.12 314.341 256.692C315.05 256.265 315.885 256.051 316.846 256.051C317.713 256.051 318.495 256.235 319.192 256.604C319.896 256.974 320.452 257.527 320.862 258.266C321.278 259.004 321.486 259.93 321.486 261.043V261.781H314.789C314.818 262.525 315.035 263.108 315.439 263.53C315.844 263.952 316.371 264.163 317.021 264.163C317.473 264.163 317.859 264.066 318.182 263.873C318.51 263.68 318.744 263.398 318.885 263.029L321.398 263.196C321.205 264.099 320.722 264.825 319.948 265.376C319.181 265.921 318.19 266.193 316.978 266.193ZM314.807 260.103H318.876C318.812 259.481 318.612 258.989 318.278 258.626C317.944 258.263 317.476 258.081 316.872 258.081C316.263 258.081 315.779 258.271 315.422 258.652C315.07 259.027 314.865 259.511 314.807 260.103ZM327.428 266V264.014L332.095 259.689C332.687 259.115 333.138 258.617 333.448 258.195C333.759 257.773 333.914 257.305 333.914 256.789C333.914 256.215 333.724 255.761 333.343 255.427C332.968 255.093 332.493 254.926 331.919 254.926C331.315 254.926 330.832 255.107 330.469 255.471C330.111 255.828 329.933 256.32 329.933 256.947H327.305C327.305 256.086 327.501 255.342 327.894 254.715C328.286 254.082 328.828 253.593 329.52 253.247C330.217 252.901 331.022 252.729 331.937 252.729C332.874 252.729 333.691 252.896 334.389 253.229C335.086 253.558 335.628 254.015 336.015 254.601C336.401 255.181 336.595 255.852 336.595 256.613C336.595 257.105 336.495 257.592 336.296 258.072C336.103 258.547 335.76 259.077 335.268 259.663C334.775 260.249 334.078 260.952 333.176 261.772L331.269 263.645V263.741H336.771V266H327.428ZM343.907 266.176C342.237 266.176 340.937 265.587 340.005 264.409C339.079 263.231 338.616 261.582 338.616 259.461C338.616 257.34 339.082 255.688 340.014 254.504C340.945 253.32 342.243 252.729 343.907 252.729C345.571 252.729 346.869 253.32 347.801 254.504C348.732 255.688 349.198 257.34 349.198 259.461C349.198 261.582 348.732 263.231 347.801 264.409C346.875 265.587 345.577 266.176 343.907 266.176ZM341.438 259.461C341.438 260.879 341.648 261.972 342.07 262.739C342.498 263.507 343.11 263.891 343.907 263.891C344.704 263.891 345.313 263.507 345.735 262.739C346.163 261.972 346.377 260.879 346.377 259.461C346.377 258.037 346.163 256.938 345.735 256.165C345.313 255.392 344.704 255.005 343.907 255.005C343.116 255.005 342.507 255.395 342.079 256.174C341.651 256.947 341.438 258.043 341.438 259.461ZM351.158 266V264.014L355.825 259.689C356.417 259.115 356.868 258.617 357.179 258.195C357.489 257.773 357.645 257.305 357.645 256.789C357.645 256.215 357.454 255.761 357.073 255.427C356.698 255.093 356.224 254.926 355.649 254.926C355.046 254.926 354.562 255.107 354.199 255.471C353.842 255.828 353.663 256.32 353.663 256.947H351.035C351.035 256.086 351.231 255.342 351.624 254.715C352.017 254.082 352.559 253.593 353.25 253.247C353.947 252.901 354.753 252.729 355.667 252.729C356.604 252.729 357.422 252.896 358.119 253.229C358.816 253.558 359.358 254.015 359.745 254.601C360.132 255.181 360.325 255.852 360.325 256.613C360.325 257.105 360.226 257.592 360.026 258.072C359.833 258.547 359.49 259.077 358.998 259.663C358.506 260.249 357.809 260.952 356.906 261.772L354.999 263.645V263.741H360.501V266H351.158ZM367.295 266.176C366.393 266.176 365.584 266.012 364.869 265.684C364.16 265.35 363.601 264.89 363.19 264.304C362.78 263.718 362.566 263.05 362.549 262.3H365.238C365.262 262.804 365.473 263.214 365.871 263.53C366.27 263.841 366.744 263.996 367.295 263.996C367.939 263.996 368.467 263.785 368.877 263.363C369.293 262.936 369.501 262.382 369.501 261.702C369.501 261.017 369.29 260.457 368.868 260.023C368.452 259.59 367.913 259.373 367.251 259.373C366.858 259.373 366.483 259.452 366.126 259.61C365.774 259.769 365.499 259.982 365.3 260.252L362.821 259.812L363.445 252.904H371.452V255.172H365.73L365.396 258.45H365.467C365.701 258.128 366.05 257.861 366.513 257.65C366.976 257.439 367.494 257.334 368.068 257.334C368.859 257.334 369.562 257.519 370.178 257.888C370.799 258.257 371.285 258.764 371.637 259.408C371.994 260.053 372.173 260.794 372.173 261.632C372.173 262.511 371.968 263.293 371.558 263.979C371.147 264.664 370.576 265.203 369.844 265.596C369.111 265.982 368.262 266.176 367.295 266.176Z" fill="black"/>
<path d="M15.5781 191.498L15.6855 189.983L14.418 190.832L13.8916 189.919L15.2559 189.253L13.8916 188.587L14.418 187.663L15.6855 188.512L15.5781 186.997H16.6309L16.5342 188.512L17.7964 187.663L18.3174 188.587L16.9639 189.253L18.3174 189.919L17.7964 190.832L16.5342 189.983L16.6309 191.498H15.5781ZM21.5991 195.113C21.0262 195.113 20.55 194.964 20.1704 194.667C19.7944 194.366 19.6064 193.919 19.6064 193.324C19.6064 192.877 19.7103 192.526 19.918 192.271C20.1292 192.014 20.4067 191.826 20.7505 191.708C21.0942 191.586 21.4631 191.507 21.8569 191.471C22.3797 191.421 22.7521 191.369 22.9741 191.315C23.1997 191.258 23.3125 191.133 23.3125 190.939V190.913C23.3125 190.666 23.2337 190.474 23.0762 190.338C22.9186 190.202 22.6912 190.134 22.394 190.134C22.0968 190.134 21.8534 190.198 21.6636 190.327C21.4774 190.456 21.3538 190.621 21.293 190.821L19.7783 190.58C19.9215 190.057 20.2223 189.65 20.6807 189.36C21.1426 189.067 21.7155 188.92 22.3994 188.92C22.8434 188.92 23.2606 188.99 23.6509 189.129C24.0448 189.269 24.3634 189.489 24.6069 189.79C24.8504 190.087 24.9722 190.474 24.9722 190.95V195H23.3984V194.162H23.3501C23.2033 194.445 22.9849 194.674 22.6948 194.85C22.4084 195.025 22.0431 195.113 21.5991 195.113ZM21.1909 193.271C21.1909 193.5 21.2733 193.673 21.438 193.792C21.6063 193.906 21.8175 193.963 22.0718 193.963C22.437 193.963 22.736 193.858 22.9688 193.646C23.2051 193.435 23.3232 193.172 23.3232 192.857V192.218C23.2588 192.261 23.1567 192.3 23.0171 192.336C22.881 192.372 22.736 192.402 22.582 192.427C22.4281 192.449 22.2902 192.468 22.1685 192.486C21.8748 192.529 21.6385 192.613 21.4595 192.739C21.2804 192.861 21.1909 193.038 21.1909 193.271ZM27.9746 191.53V195H26.3096V188.995H27.9478V190.064H28.0068C28.1429 189.713 28.3595 189.436 28.6567 189.231C28.9539 189.024 29.3245 188.92 29.7686 188.92C30.3952 188.92 30.8965 189.122 31.2725 189.527C31.652 189.928 31.8418 190.479 31.8418 191.181V195H30.1768V191.477C30.1768 191.108 30.0819 190.819 29.8921 190.612C29.7059 190.404 29.4463 190.3 29.1133 190.3C28.7767 190.3 28.5028 190.41 28.2915 190.628C28.0802 190.843 27.9746 191.144 27.9746 191.53ZM35.3706 195.097C34.9123 195.097 34.4987 194.979 34.1299 194.742C33.7611 194.506 33.4692 194.159 33.2544 193.7C33.0396 193.238 32.9321 192.674 32.9321 192.008C32.9321 191.321 33.0431 190.748 33.2651 190.29C33.4871 189.831 33.7826 189.489 34.1514 189.264C34.5202 189.035 34.923 188.92 35.3599 188.92C35.6965 188.92 35.9775 188.977 36.2031 189.092C36.4287 189.203 36.6113 189.342 36.751 189.511C36.8906 189.679 36.9963 189.846 37.0679 190.01H37.1162V186.997H38.7812V195H37.1431V194.039H37.0679C36.9927 194.203 36.8835 194.368 36.7402 194.533C36.597 194.694 36.4126 194.828 36.187 194.936C35.965 195.043 35.6929 195.097 35.3706 195.097ZM37.1538 192.003C37.1538 191.466 37.0446 191.038 36.8262 190.719C36.6077 190.401 36.2962 190.241 35.8916 190.241C35.4798 190.241 35.1665 190.404 34.9517 190.73C34.7404 191.056 34.6348 191.48 34.6348 192.003C34.6348 192.522 34.7422 192.948 34.957 193.281C35.1719 193.611 35.4834 193.775 35.8916 193.775C36.2926 193.775 36.6024 193.612 36.8208 193.287C37.0428 192.961 37.1538 192.533 37.1538 192.003ZM42.6699 197.245V188.995H44.3081V190.01H44.3833C44.4585 189.846 44.5641 189.679 44.7002 189.511C44.8398 189.342 45.0225 189.203 45.248 189.092C45.4772 188.977 45.7583 188.92 46.0913 188.92C46.5317 188.92 46.9346 189.035 47.2998 189.264C47.6686 189.489 47.964 189.831 48.186 190.29C48.408 190.748 48.519 191.321 48.519 192.008C48.519 192.674 48.4116 193.238 48.1968 193.7C47.9819 194.159 47.6901 194.506 47.3213 194.742C46.9525 194.979 46.5389 195.097 46.0806 195.097C45.7583 195.097 45.4844 195.043 45.2588 194.936C45.0368 194.828 44.8542 194.694 44.7109 194.533C44.5713 194.368 44.4621 194.203 44.3833 194.039H44.335V197.245H42.6699ZM44.2974 192.003C44.2974 192.533 44.4066 192.961 44.625 193.287C44.847 193.612 45.1585 193.775 45.5596 193.775C45.9678 193.775 46.2793 193.611 46.4941 193.281C46.709 192.948 46.8164 192.522 46.8164 192.003C46.8164 191.48 46.709 191.056 46.4941 190.73C46.2829 190.404 45.9714 190.241 45.5596 190.241C45.1585 190.241 44.847 190.401 44.625 190.719C44.4066 191.038 44.2974 191.466 44.2974 192.003ZM52.3164 195.118C51.7113 195.118 51.1867 194.989 50.7427 194.731C50.3022 194.47 49.9621 194.108 49.7222 193.646C49.4858 193.181 49.3677 192.64 49.3677 192.024C49.3677 191.405 49.4858 190.862 49.7222 190.397C49.9621 189.931 50.3022 189.57 50.7427 189.312C51.1867 189.051 51.7113 188.92 52.3164 188.92C52.9251 188.92 53.4497 189.051 53.8901 189.312C54.3341 189.57 54.6743 189.931 54.9106 190.397C55.1506 190.862 55.2705 191.405 55.2705 192.024C55.2705 192.64 55.1506 193.181 54.9106 193.646C54.6743 194.108 54.3341 194.47 53.8901 194.731C53.4497 194.989 52.9251 195.118 52.3164 195.118ZM51.0596 192.014C51.0596 192.536 51.1652 192.968 51.3765 193.308C51.5877 193.648 51.9028 193.818 52.3218 193.818C52.7371 193.818 53.0505 193.648 53.2617 193.308C53.473 192.968 53.5786 192.536 53.5786 192.014C53.5786 191.491 53.473 191.061 53.2617 190.725C53.0505 190.388 52.7371 190.22 52.3218 190.22C51.9028 190.22 51.5877 190.388 51.3765 190.725C51.1652 191.061 51.0596 191.491 51.0596 192.014ZM61.3506 190.708L59.8359 190.8C59.793 190.61 59.6855 190.447 59.5137 190.311C59.3454 190.171 59.1162 190.102 58.8262 190.102C58.5684 190.102 58.3517 190.155 58.1763 190.263C58.0008 190.37 57.9131 190.513 57.9131 190.692C57.9131 190.836 57.9704 190.957 58.085 191.058C58.1995 191.158 58.3947 191.238 58.6704 191.299L59.7607 191.514C60.9137 191.743 61.4902 192.284 61.4902 193.136C61.4902 193.534 61.3757 193.881 61.1465 194.178C60.9173 194.475 60.6022 194.706 60.2012 194.871C59.8001 195.036 59.34 195.118 58.8208 195.118C58.0259 195.118 57.3939 194.953 56.9248 194.624C56.4557 194.291 56.18 193.838 56.0977 193.265L57.7305 193.179C57.8415 193.673 58.2067 193.92 58.8262 193.92C59.1162 193.92 59.3507 193.863 59.5298 193.749C59.7088 193.634 59.7983 193.489 59.7983 193.313C59.7983 193.016 59.5423 192.816 59.0303 192.712L57.9937 192.497C56.8371 192.264 56.2588 191.695 56.2588 190.789C56.2588 190.209 56.4897 189.752 56.9517 189.419C57.4172 189.086 58.033 188.92 58.7993 188.92C59.5584 188.92 60.1564 189.081 60.5933 189.403C61.0301 189.722 61.2826 190.157 61.3506 190.708ZM67.5273 190.708L66.0127 190.8C65.9697 190.61 65.8623 190.447 65.6904 190.311C65.5221 190.171 65.293 190.102 65.0029 190.102C64.7451 190.102 64.5285 190.155 64.353 190.263C64.1776 190.37 64.0898 190.513 64.0898 190.692C64.0898 190.836 64.1471 190.957 64.2617 191.058C64.3763 191.158 64.5715 191.238 64.8472 191.299L65.9375 191.514C67.0905 191.743 67.667 192.284 67.667 193.136C67.667 193.534 67.5524 193.881 67.3232 194.178C67.0941 194.475 66.779 194.706 66.3779 194.871C65.9769 195.036 65.5168 195.118 64.9976 195.118C64.2026 195.118 63.5706 194.953 63.1016 194.624C62.6325 194.291 62.3568 193.838 62.2744 193.265L63.9072 193.179C64.0182 193.673 64.3835 193.92 65.0029 193.92C65.293 193.92 65.5275 193.863 65.7065 193.749C65.8856 193.634 65.9751 193.489 65.9751 193.313C65.9751 193.016 65.7191 192.816 65.207 192.712L64.1704 192.497C63.0138 192.264 62.4355 191.695 62.4355 190.789C62.4355 190.209 62.6665 189.752 63.1284 189.419C63.5939 189.086 64.2098 188.92 64.9761 188.92C65.7352 188.92 66.3332 189.081 66.77 189.403C67.2069 189.722 67.4593 190.157 67.5273 190.708ZM68.7197 195V188.995H70.3848V195H68.7197ZM69.5522 188.227C69.3052 188.227 69.0921 188.145 68.9131 187.98C68.7376 187.815 68.6499 187.617 68.6499 187.384C68.6499 187.151 68.7376 186.954 68.9131 186.793C69.0921 186.628 69.3052 186.546 69.5522 186.546C69.7993 186.546 70.0106 186.628 70.186 186.793C70.3651 186.954 70.4546 187.151 70.4546 187.384C70.4546 187.617 70.3651 187.815 70.186 187.98C70.0106 188.145 69.7993 188.227 69.5522 188.227ZM75.1274 195.097C74.8052 195.097 74.5312 195.043 74.3057 194.936C74.0837 194.828 73.901 194.694 73.7578 194.533C73.6182 194.368 73.509 194.203 73.4302 194.039H73.355V195H71.7168V186.997H73.3818V190.01H73.4302C73.5054 189.846 73.611 189.679 73.7471 189.511C73.8867 189.342 74.0693 189.203 74.2949 189.092C74.5241 188.977 74.8052 188.92 75.1382 188.92C75.5786 188.92 75.9814 189.035 76.3467 189.264C76.7155 189.489 77.0109 189.831 77.2329 190.29C77.4549 190.748 77.5659 191.321 77.5659 192.008C77.5659 192.674 77.4585 193.238 77.2437 193.7C77.0288 194.159 76.737 194.506 76.3682 194.742C75.9993 194.979 75.5858 195.097 75.1274 195.097ZM73.3442 192.003C73.3442 192.533 73.4535 192.961 73.6719 193.287C73.8939 193.612 74.2054 193.775 74.6064 193.775C75.0146 193.775 75.3262 193.611 75.541 193.281C75.7559 192.948 75.8633 192.522 75.8633 192.003C75.8633 191.48 75.7559 191.056 75.541 190.73C75.3298 190.404 75.0182 190.241 74.6064 190.241C74.2054 190.241 73.8939 190.401 73.6719 190.719C73.4535 191.038 73.3442 191.466 73.3442 192.003ZM80.3213 186.997V195H78.6562V186.997H80.3213ZM82.6685 197.288C82.4572 197.288 82.2585 197.272 82.0723 197.24C81.8896 197.208 81.7375 197.168 81.6157 197.122L81.9971 195.881L82.0508 195.892C82.3301 195.97 82.57 195.988 82.7705 195.945C82.9746 195.902 83.125 195.745 83.2217 195.473L83.3237 195.172L81.1753 188.995H82.9209L84.167 193.405H84.2314L85.4829 188.995H87.2446L84.8975 195.693C84.7292 196.18 84.4696 196.567 84.1187 196.853C83.7713 197.143 83.2879 197.288 82.6685 197.288ZM95.6396 190.708L94.125 190.8C94.082 190.61 93.9746 190.447 93.8027 190.311C93.6344 190.171 93.4053 190.102 93.1152 190.102C92.8574 190.102 92.6408 190.155 92.4653 190.263C92.2899 190.37 92.2021 190.513 92.2021 190.692C92.2021 190.836 92.2594 190.957 92.374 191.058C92.4886 191.158 92.6838 191.238 92.9595 191.299L94.0498 191.514C95.2028 191.743 95.7793 192.284 95.7793 193.136C95.7793 193.534 95.6647 193.881 95.4355 194.178C95.2064 194.475 94.8913 194.706 94.4902 194.871C94.0892 195.036 93.6291 195.118 93.1099 195.118C92.3149 195.118 91.6829 194.953 91.2139 194.624C90.7448 194.291 90.4691 193.838 90.3867 193.265L92.0195 193.179C92.1305 193.673 92.4958 193.92 93.1152 193.92C93.4053 193.92 93.6398 193.863 93.8188 193.749C93.9979 193.634 94.0874 193.489 94.0874 193.313C94.0874 193.016 93.8314 192.816 93.3193 192.712L92.2827 192.497C91.1261 192.264 90.5479 191.695 90.5479 190.789C90.5479 190.209 90.7788 189.752 91.2407 189.419C91.7062 189.086 92.3221 188.92 93.0884 188.92C93.8475 188.92 94.4455 189.081 94.8823 189.403C95.3192 189.722 95.5716 190.157 95.6396 190.708ZM96.832 186.997H98.4971V191.278H98.5884L100.506 188.995H102.418L100.194 191.6L102.525 195H100.581L98.9482 192.578L98.4971 193.088V195H96.832V186.997ZM103.234 195V188.995H104.899V195H103.234ZM104.067 188.227C103.82 188.227 103.607 188.145 103.428 187.98C103.252 187.815 103.165 187.617 103.165 187.384C103.165 187.151 103.252 186.954 103.428 186.793C103.607 186.628 103.82 186.546 104.067 186.546C104.314 186.546 104.525 186.628 104.701 186.793C104.88 186.954 104.969 187.151 104.969 187.384C104.969 187.617 104.88 187.815 104.701 187.98C104.525 188.145 104.314 188.227 104.067 188.227ZM111.216 190.708L109.701 190.8C109.658 190.61 109.551 190.447 109.379 190.311C109.211 190.171 108.981 190.102 108.691 190.102C108.434 190.102 108.217 190.155 108.042 190.263C107.866 190.37 107.778 190.513 107.778 190.692C107.778 190.836 107.836 190.957 107.95 191.058C108.065 191.158 108.26 191.238 108.536 191.299L109.626 191.514C110.779 191.743 111.355 192.284 111.355 193.136C111.355 193.534 111.241 193.881 111.012 194.178C110.783 194.475 110.467 194.706 110.066 194.871C109.665 195.036 109.205 195.118 108.686 195.118C107.891 195.118 107.259 194.953 106.79 194.624C106.321 194.291 106.045 193.838 105.963 193.265L107.596 193.179C107.707 193.673 108.072 193.92 108.691 193.92C108.981 193.92 109.216 193.863 109.395 193.749C109.574 193.634 109.664 193.489 109.664 193.313C109.664 193.016 109.408 192.816 108.896 192.712L107.859 192.497C106.702 192.264 106.124 191.695 106.124 190.789C106.124 190.209 106.355 189.752 106.817 189.419C107.282 189.086 107.898 188.92 108.665 188.92C109.424 188.92 110.022 189.081 110.458 189.403C110.895 189.722 111.148 190.157 111.216 190.708ZM112.376 197.132L112.849 193.781H114.498L113.499 197.132H112.376ZM123.838 190.708L122.323 190.8C122.28 190.61 122.173 190.447 122.001 190.311C121.833 190.171 121.604 190.102 121.313 190.102C121.056 190.102 120.839 190.155 120.664 190.263C120.488 190.37 120.4 190.513 120.4 190.692C120.4 190.836 120.458 190.957 120.572 191.058C120.687 191.158 120.882 191.238 121.158 191.299L122.248 191.514C123.401 191.743 123.978 192.284 123.978 193.136C123.978 193.534 123.863 193.881 123.634 194.178C123.405 194.475 123.09 194.706 122.688 194.871C122.287 195.036 121.827 195.118 121.308 195.118C120.513 195.118 119.881 194.953 119.412 194.624C118.943 194.291 118.667 193.838 118.585 193.265L120.218 193.179C120.329 193.673 120.694 193.92 121.313 193.92C121.604 193.92 121.838 193.863 122.017 193.749C122.196 193.634 122.286 193.489 122.286 193.313C122.286 193.016 122.03 192.816 121.518 192.712L120.481 192.497C119.324 192.264 118.746 191.695 118.746 190.789C118.746 190.209 118.977 189.752 119.439 189.419C119.904 189.086 120.52 188.92 121.287 188.92C122.046 188.92 122.644 189.081 123.081 189.403C123.517 189.722 123.77 190.157 123.838 190.708ZM128.876 192.449V188.995H130.541V195H128.94V193.91H128.876C128.743 194.261 128.52 194.543 128.205 194.758C127.893 194.973 127.512 195.079 127.061 195.075C126.455 195.079 125.965 194.88 125.589 194.479C125.216 194.074 125.03 193.521 125.03 192.819V188.995H126.695V192.529C126.695 192.88 126.79 193.16 126.98 193.367C127.17 193.571 127.422 193.672 127.737 193.668C128.035 193.672 128.298 193.569 128.527 193.362C128.76 193.154 128.876 192.85 128.876 192.449ZM131.873 195V188.995H133.484V190.048H133.549C133.656 189.675 133.839 189.394 134.097 189.205C134.354 189.011 134.652 188.915 134.988 188.915C135.071 188.915 135.16 188.92 135.257 188.931C135.354 188.941 135.438 188.956 135.509 188.974V190.445C135.431 190.42 135.321 190.401 135.182 190.386C135.046 190.368 134.92 190.359 134.806 190.359C134.44 190.359 134.138 190.476 133.898 190.708C133.658 190.938 133.538 191.237 133.538 191.605V195H131.873ZM136.766 195V190.252H135.923V188.995H136.766V188.56C136.766 187.912 136.952 187.427 137.325 187.104C137.701 186.782 138.17 186.621 138.732 186.621C138.99 186.621 139.224 186.643 139.436 186.686C139.65 186.725 139.808 186.759 139.908 186.788L139.613 188.034C139.548 188.016 139.47 187.998 139.376 187.98C139.283 187.962 139.185 187.953 139.081 187.953C138.838 187.953 138.666 188.01 138.565 188.125C138.469 188.236 138.42 188.394 138.42 188.598V188.995H139.618V190.252H138.42V195H136.766ZM144.049 195.097C143.727 195.097 143.453 195.043 143.228 194.936C143.006 194.828 142.823 194.694 142.68 194.533C142.54 194.368 142.431 194.203 142.352 194.039H142.277V195H140.639V186.997H142.304V190.01H142.352C142.427 189.846 142.533 189.679 142.669 189.511C142.809 189.342 142.991 189.203 143.217 189.092C143.446 188.977 143.727 188.92 144.06 188.92C144.5 188.92 144.903 189.035 145.269 189.264C145.637 189.489 145.933 189.831 146.155 190.29C146.377 190.748 146.488 191.321 146.488 192.008C146.488 192.674 146.38 193.238 146.166 193.7C145.951 194.159 145.659 194.506 145.29 194.742C144.921 194.979 144.508 195.097 144.049 195.097ZM142.266 192.003C142.266 192.533 142.375 192.961 142.594 193.287C142.816 193.612 143.127 193.775 143.528 193.775C143.937 193.775 144.248 193.611 144.463 193.281C144.678 192.948 144.785 192.522 144.785 192.003C144.785 191.48 144.678 191.056 144.463 190.73C144.252 190.404 143.94 190.241 143.528 190.241C143.127 190.241 142.816 190.401 142.594 190.719C142.375 191.038 142.266 191.466 142.266 192.003ZM150.285 195.118C149.68 195.118 149.155 194.989 148.711 194.731C148.271 194.47 147.931 194.108 147.691 193.646C147.455 193.181 147.336 192.64 147.336 192.024C147.336 191.405 147.455 190.862 147.691 190.397C147.931 189.931 148.271 189.57 148.711 189.312C149.155 189.051 149.68 188.92 150.285 188.92C150.894 188.92 151.418 189.051 151.859 189.312C152.303 189.57 152.643 189.931 152.879 190.397C153.119 190.862 153.239 191.405 153.239 192.024C153.239 192.64 153.119 193.181 152.879 193.646C152.643 194.108 152.303 194.47 151.859 194.731C151.418 194.989 150.894 195.118 150.285 195.118ZM149.028 192.014C149.028 192.536 149.134 192.968 149.345 193.308C149.556 193.648 149.872 193.818 150.291 193.818C150.706 193.818 151.019 193.648 151.23 193.308C151.442 192.968 151.547 192.536 151.547 192.014C151.547 191.491 151.442 191.061 151.23 190.725C151.019 190.388 150.706 190.22 150.291 190.22C149.872 190.22 149.556 190.388 149.345 190.725C149.134 191.061 149.028 191.491 149.028 192.014ZM156.048 195.113C155.475 195.113 154.999 194.964 154.62 194.667C154.244 194.366 154.056 193.919 154.056 193.324C154.056 192.877 154.16 192.526 154.367 192.271C154.578 192.014 154.856 191.826 155.2 191.708C155.543 191.586 155.912 191.507 156.306 191.471C156.829 191.421 157.201 191.369 157.423 191.315C157.649 191.258 157.762 191.133 157.762 190.939V190.913C157.762 190.666 157.683 190.474 157.525 190.338C157.368 190.202 157.14 190.134 156.843 190.134C156.546 190.134 156.303 190.198 156.113 190.327C155.927 190.456 155.803 190.621 155.742 190.821L154.228 190.58C154.371 190.057 154.672 189.65 155.13 189.36C155.592 189.067 156.165 188.92 156.849 188.92C157.293 188.92 157.71 188.99 158.1 189.129C158.494 189.269 158.813 189.489 159.056 189.79C159.3 190.087 159.421 190.474 159.421 190.95V195H157.848V194.162H157.799C157.653 194.445 157.434 194.674 157.144 194.85C156.858 195.025 156.492 195.113 156.048 195.113ZM155.64 193.271C155.64 193.5 155.722 193.673 155.887 193.792C156.056 193.906 156.267 193.963 156.521 193.963C156.886 193.963 157.185 193.858 157.418 193.646C157.654 193.435 157.772 193.172 157.772 192.857V192.218C157.708 192.261 157.606 192.3 157.466 192.336C157.33 192.372 157.185 192.402 157.031 192.427C156.877 192.449 156.739 192.468 156.618 192.486C156.324 192.529 156.088 192.613 155.909 192.739C155.73 192.861 155.64 193.038 155.64 193.271ZM160.759 195V188.995H162.37V190.048H162.435C162.542 189.675 162.725 189.394 162.982 189.205C163.24 189.011 163.537 188.915 163.874 188.915C163.956 188.915 164.046 188.92 164.143 188.931C164.239 188.941 164.323 188.956 164.395 188.974V190.445C164.316 190.42 164.207 190.401 164.067 190.386C163.931 190.368 163.806 190.359 163.691 190.359C163.326 190.359 163.024 190.476 162.784 190.708C162.544 190.938 162.424 191.237 162.424 191.605V195H160.759ZM167.457 195.097C166.998 195.097 166.585 194.979 166.216 194.742C165.847 194.506 165.555 194.159 165.34 193.7C165.125 193.238 165.018 192.674 165.018 192.008C165.018 191.321 165.129 190.748 165.351 190.29C165.573 189.831 165.868 189.489 166.237 189.264C166.606 189.035 167.009 188.92 167.446 188.92C167.782 188.92 168.063 188.977 168.289 189.092C168.515 189.203 168.697 189.342 168.837 189.511C168.977 189.679 169.082 189.846 169.154 190.01H169.202V186.997H170.867V195H169.229V194.039H169.154C169.079 194.203 168.969 194.368 168.826 194.533C168.683 194.694 168.499 194.828 168.273 194.936C168.051 195.043 167.779 195.097 167.457 195.097ZM169.24 192.003C169.24 191.466 169.131 191.038 168.912 190.719C168.694 190.401 168.382 190.241 167.978 190.241C167.566 190.241 167.252 190.404 167.038 190.73C166.826 191.056 166.721 191.48 166.721 192.003C166.721 192.522 166.828 192.948 167.043 193.281C167.258 193.611 167.569 193.775 167.978 193.775C168.379 193.775 168.688 193.612 168.907 193.287C169.129 192.961 169.24 192.533 169.24 192.003ZM177.184 190.708L175.669 190.8C175.626 190.61 175.519 190.447 175.347 190.311C175.178 190.171 174.949 190.102 174.659 190.102C174.401 190.102 174.185 190.155 174.009 190.263C173.834 190.37 173.746 190.513 173.746 190.692C173.746 190.836 173.803 190.957 173.918 191.058C174.033 191.158 174.228 191.238 174.503 191.299L175.594 191.514C176.747 191.743 177.323 192.284 177.323 193.136C177.323 193.534 177.209 193.881 176.979 194.178C176.75 194.475 176.435 194.706 176.034 194.871C175.633 195.036 175.173 195.118 174.654 195.118C173.859 195.118 173.227 194.953 172.758 194.624C172.289 194.291 172.013 193.838 171.931 193.265L173.563 193.179C173.674 193.673 174.04 193.92 174.659 193.92C174.949 193.92 175.184 193.863 175.363 193.749C175.542 193.634 175.631 193.489 175.631 193.313C175.631 193.016 175.375 192.816 174.863 192.712L173.827 192.497C172.67 192.264 172.092 191.695 172.092 190.789C172.092 190.209 172.323 189.752 172.785 189.419C173.25 189.086 173.866 188.92 174.632 188.92C175.391 188.92 175.989 189.081 176.426 189.403C176.863 189.722 177.116 190.157 177.184 190.708ZM178.344 197.132L178.816 193.781H180.465L179.466 197.132H178.344ZM187.555 195.118C186.939 195.118 186.409 194.993 185.965 194.742C185.521 194.492 185.179 194.135 184.939 193.673C184.7 193.208 184.58 192.658 184.58 192.024C184.58 191.409 184.698 190.868 184.934 190.402C185.174 189.937 185.511 189.573 185.944 189.312C186.377 189.051 186.887 188.92 187.475 188.92C188.005 188.92 188.483 189.033 188.909 189.258C189.338 189.484 189.679 189.822 189.929 190.273C190.183 190.725 190.311 191.29 190.311 191.971V192.422H186.218C186.236 192.877 186.368 193.233 186.615 193.491C186.862 193.749 187.185 193.877 187.582 193.877C187.858 193.877 188.094 193.818 188.291 193.7C188.492 193.582 188.635 193.41 188.721 193.185L190.257 193.287C190.139 193.838 189.843 194.282 189.371 194.619C188.902 194.952 188.296 195.118 187.555 195.118ZM186.229 191.396H188.715C188.676 191.016 188.554 190.716 188.35 190.494C188.146 190.272 187.86 190.161 187.491 190.161C187.118 190.161 186.823 190.277 186.604 190.51C186.39 190.739 186.264 191.034 186.229 191.396ZM194.597 188.995V190.252H193.458V193.152C193.458 193.543 193.648 193.738 194.027 193.738C194.092 193.738 194.162 193.732 194.237 193.722C194.316 193.711 194.384 193.698 194.441 193.684L194.704 194.93C194.35 195.034 194.006 195.086 193.673 195.086C193.078 195.086 192.617 194.936 192.287 194.635C191.961 194.334 191.798 193.913 191.798 193.373V190.252H190.982V188.995H191.798V187.566H193.458V188.995H194.597ZM198.389 195.118C197.773 195.118 197.245 194.987 196.804 194.726C196.364 194.465 196.025 194.101 195.789 193.636C195.556 193.17 195.44 192.633 195.44 192.024C195.44 191.409 195.558 190.868 195.794 190.402C196.034 189.937 196.375 189.573 196.815 189.312C197.255 189.051 197.778 188.92 198.383 188.92C198.906 188.92 199.364 189.015 199.758 189.205C200.152 189.394 200.464 189.661 200.693 190.005C200.922 190.349 201.047 190.753 201.069 191.219H199.5C199.454 190.922 199.338 190.682 199.151 190.499C198.965 190.313 198.718 190.22 198.41 190.22C198.023 190.22 197.714 190.375 197.481 190.687C197.248 190.995 197.132 191.434 197.132 192.003C197.132 192.576 197.246 193.022 197.476 193.34C197.708 193.659 198.02 193.818 198.41 193.818C198.697 193.818 198.938 193.729 199.135 193.55C199.332 193.371 199.454 193.12 199.5 192.798H201.069C201.044 193.256 200.92 193.661 200.698 194.012C200.476 194.359 200.168 194.631 199.774 194.828C199.384 195.021 198.922 195.118 198.389 195.118ZM203.341 195.102C203.076 195.102 202.852 195.013 202.669 194.833C202.487 194.651 202.396 194.429 202.396 194.167C202.396 193.903 202.487 193.681 202.669 193.501C202.852 193.322 203.076 193.233 203.341 193.233C203.606 193.233 203.83 193.322 204.012 193.501C204.195 193.681 204.286 193.903 204.286 194.167C204.286 194.429 204.195 194.651 204.012 194.833C203.83 195.013 203.606 195.102 203.341 195.102Z" fill="black"/>
</svg>
